<svg width="707" height="964" viewBox="0 0 707 964" fill="none" xmlns="http://www.w3.org/2000/svg">
<path d="M309.86 262.022L391.923 262.022L529.948 262.022L666.506 340.864C691.315 355.187 706.598 381.657 706.598 410.304V725.671C706.598 754.317 691.315 780.788 666.506 795.111L393.39 952.795C368.581 967.118 338.016 967.118 313.208 952.795L40.0911 795.111C15.2826 780.788 0 754.317 0 725.671V410.304C0 381.657 15.2827 355.187 40.0911 340.864L176.649 262.022L309.86 262.022Z" fill="#249EA0"/>
<path d="M488.471 259.347C506.831 258.272 522.444 258.267 533.565 261.012C539.16 262.393 544.043 264.568 547.556 268.032C551.197 271.622 553.032 276.268 553.032 281.793C553.031 292.641 546.481 302.317 536.157 310.515C525.788 318.748 511.046 325.978 493.202 331.971C457.473 343.971 408.381 351.321 354.351 351.321C300.32 351.321 251.229 343.971 215.499 331.971C197.656 325.978 182.913 318.748 172.545 310.515C162.221 302.317 155.67 292.641 155.67 281.793C155.67 276.441 157.195 271.859 160.413 268.235C163.557 264.694 167.972 262.458 173.052 261.044C183.073 258.255 197.193 258.275 213.965 259.349C248.04 261.53 294.501 268.154 348.062 268.154C401.647 268.154 451.243 261.526 488.471 259.347Z" fill="#F78104" stroke="white" stroke-width="8.42399"/>
<path d="M548.814 280.419H159.882V168.804L353.94 230.934L548.814 168.542V280.419Z" fill="#F78104"/>
<path fill-rule="evenodd" clip-rule="evenodd" d="M353.94 0L688.067 106.98L353.94 213.955L19.8084 106.98L353.94 0Z" fill="#F78104"/>
<path d="M353.165 761.518C355.948 733.198 377.659 717.878 416.626 717.878L485.654 717.413C525.178 717.413 539.651 707.2 539.651 670.988V662.167H591.422V683.058C591.422 743.412 565.815 774.053 494.561 774.053H436.666C399.369 774.517 382.669 781.017 382.669 810.73H316.424C316.424 781.017 299.724 774.053 262.983 774.053H211.212C140.514 774.053 116.021 743.412 116.021 683.058V662.167H168.348V671.452C168.348 707.2 182.265 717.878 221.789 717.878H286.364C325.331 717.878 342.588 733.198 345.928 761.518H353.165Z" fill="white"/>
<path d="M234.645 454.423L235.815 456.328L288.876 542.636L292.623 548.731H252.817L251.65 546.798L214.924 485.955L178.663 546.779L177.499 548.731H137.164L140.911 542.636L193.971 456.328L195.142 454.423H234.645ZM506.642 454.423L507.813 456.328L560.873 542.636L564.619 548.731H524.813L523.647 546.798L486.92 485.956L450.659 546.779L449.496 548.731H409.161L412.907 542.636L465.968 456.328L467.139 454.423H506.642Z" fill="white" stroke="white" stroke-width="8"/>
</svg>
