<svg width="128" height="128" viewBox="0 0 128 128" fill="none" xmlns="http://www.w3.org/2000/svg">
  <defs>
    <linearGradient id="hephaestus-bg" x1="20" y1="16" x2="110" y2="116" gradientUnits="userSpaceOnUse">
      <stop stop-color="#1E5FA0"/>
      <stop offset="1" stop-color="#0F3560"/>
    </linearGradient>
    <filter id="hephaestus-shadow" x="6" y="8" width="116" height="116" filterUnits="userSpaceOnUse" color-interpolation-filters="sRGB">
      <feFlood flood-opacity="0" result="BackgroundImageFix"/>
      <feColorMatrix in="SourceAlpha" type="matrix" values="0 0 0 0 0 0 0 0 0 0 0 0 0 0 0 0 0 0 127 0" result="hardAlpha"/>
      <feOffset dy="4"/>
      <feGaussianBlur stdDeviation="5"/>
      <feComposite in2="hardAlpha" operator="out"/>
      <feColorMatrix type="matrix" values="0 0 0 0 0.0588235 0 0 0 0 0.207843 0 0 0 0 0.376471 0 0 0 0.24 0"/>
      <feBlend mode="normal" in2="BackgroundImageFix" result="effect1_dropShadow_1_1"/>
      <feBlend mode="normal" in="SourceGraphic" in2="effect1_dropShadow_1_1" result="shape"/>
    </filter>
  </defs>

  <g filter="url(#hephaestus-shadow)">
    <rect x="16" y="14" width="96" height="96" rx="22" fill="url(#hephaestus-bg)"/>
    <rect x="16.75" y="14.75" width="94.5" height="94.5" rx="21.25" stroke="white" stroke-opacity="0.16" stroke-width="1.5"/>
    <path d="M84.3444 57.2416C85.6838 58.581 85.6838 60.7525 84.3444 62.0919L70.6264 75.81C69.287 77.1494 67.1154 77.1494 65.776 75.81C64.4366 74.4706 64.4366 72.299 65.776 70.9596L79.4941 57.2416C80.8335 55.9022 83.005 55.9022 84.3444 57.2416Z" fill="white"/>
    <path d="M50.3144 50.3824C51.6538 51.7218 51.6538 53.8934 50.3144 55.2328L29.607 75.9402C28.8858 76.6614 28.4807 77.6395 28.4807 78.6594C28.4807 79.6793 28.8858 80.6574 29.607 81.3786C30.3283 82.0998 31.3063 82.5049 32.3262 82.5049C33.3462 82.5049 34.3242 82.0998 35.0454 81.3786L55.7529 60.6711C57.0923 59.3317 59.2638 59.3317 60.6032 60.6711C61.9426 62.0105 61.9426 64.1821 60.6032 65.5215L39.8958 86.2289C37.888 88.2367 35.165 89.3648 32.3262 89.3648C29.4874 89.3648 26.7644 88.2367 24.7566 86.2289C22.7488 84.2211 21.6208 81.4981 21.6208 78.6594C21.6208 75.8206 22.7488 73.0976 24.7566 71.0898L45.4641 50.3824C46.8035 49.043 48.975 49.043 50.3144 50.3824Z" fill="white"/>
    <path d="M34.3997 31.861C34.9123 30.529 36.1963 29.6538 37.6236 29.6634L49.7564 29.7457C56.0659 29.7874 62.1061 32.3114 66.5688 36.7716L74.3198 44.5226C74.963 45.1658 75.3243 46.038 75.3243 46.9478V50.9665C75.3247 51.8758 75.6862 52.7484 76.3293 53.3912L82.8939 59.956C84.2333 61.2954 84.2333 63.467 82.8939 64.8064C81.5545 66.1458 79.3829 66.1458 78.0435 64.8064L71.4791 58.242C69.5497 56.313 68.4648 53.6963 68.4642 50.968V48.3685L61.4187 41.323C58.0897 37.996 53.5837 36.1131 48.8786 36.0823L45.0854 36.0565C46.3599 37.6844 47.4373 39.4643 48.2906 41.3594C49.7821 44.6717 50.5542 48.2614 50.5567 51.8926V55.9904L55.6232 61.0569H58.2219C60.9507 61.0574 63.5677 62.1422 65.4969 64.0715L72.0614 70.636C73.4008 71.9754 73.4008 74.1469 72.0614 75.4863C70.722 76.8257 68.5504 76.8257 67.211 75.4863L60.6465 68.9218C60.0036 68.2787 59.1312 67.9168 58.2219 67.9164H54.2025C53.2927 67.9164 52.4205 67.5551 51.7772 66.9119L44.5911 59.7258C43.9479 59.0826 43.5866 58.2104 43.5866 57.3006L43.5866 51.8974C43.5847 49.4056 43.0548 46.942 42.032 44.6698C41.0091 42.3972 39.5164 40.3676 37.6524 38.7158L37.6458 38.7099L34.5148 35.9195C33.4577 34.9772 33.0947 33.4788 34.3997 31.861Z" fill="white"/>
    <path d="M40 25.5C48.5 21 58 21 66.5 24.4" stroke="white" stroke-opacity="0.18" stroke-width="3" stroke-linecap="round"/>
  </g>
</svg>
