<?xml version="1.0" encoding="UTF-8"?>
<svg id="Layer_1" xmlns="http://www.w3.org/2000/svg" version="1.1" viewBox="0 0 40 40">
  <!-- Generator: Adobe Illustrator 30.2.1, SVG Export Plug-In . SVG Version: 2.1.1 Build 1)  -->
  <defs>
    <style>
      .st0 {
        fill: #1c3c6d;
      }

      .st1 {
        fill: #fff;
      }
    </style>
  </defs>
  <path class="st0" d="M35.54,31.99l-14.83,3.5.41,3.08c.02.18-.22.4-.37.43-.16.04-.48.03-.61-.05l-1.12-.65-1.23,1.05c-.14.12-.44.17-.63.13-.15-.04-.35-.26-.36-.45l-.22-2.6-1.44.42c-.97.28-1.99-.08-2.54-.95-.21-.33-.4-.66-.57-1.04l-4.1-9.62L2.85,12.18c-.86-2.2.58-4.39,2.62-5.12L23.43.66c1.03-.37,2.02-.12,2.42,1.01l1.24,3.51c.64-.25,1.29-1.09,1.84-.92.13.04.33.22.39.4l2.46,6.82c1.42,3.95,3.48,8.92,5.52,12.56.19.33.16.78-.18,1.01l-1.33.87,1.16,1.98c.13.21.19.55.11.79-.21.6-1.06.25-1.01.97l.1,1.45c.03.4-.17.77-.59.87Z"/>
  <path class="st1" d="M32.18,22.26c-1.73,2.04-5.57,4.08-8.04,4.96l-8.79,3.13c-1.53-3.09-2.86-6.14-4.14-9.28-1.74-4.24-3.38-8.45-4.83-12.82L23.98,2.01c.33-.12.54.05.65.36l4.1,11.49c1.02,2.86,2.15,5.59,3.45,8.4Z"/>
  <path class="st1" d="M13.21,34.01l-4.36-10.25-4.69-12.11c-.4-1.04.05-2.1.95-2.72,1.68,4.75,3.42,9.41,5.36,14.06,1.16,2.72,2.3,5.36,3.63,8.05-.64.87-.81,1.78-.89,2.96Z"/>
  <path class="st1" d="M15.26,32.32c.09-.54.56-.72,1.02-.89l8.73-3.11c2.94-1.05,6.42-3.08,8.47-5.45.24-.28.28-.61.12-.93-1.03-2.14-1.97-4.25-2.79-6.49l-3.36-9.15c.28-.17.55-.29.87-.38l3.72,10.14,1.11,2.61c.8,1.9,1.67,3.7,2.67,5.56-1.47.91-2.96,1.62-4.53,2.3-2.85,1.23-5.7,2.26-8.64,3.29l-7.39,2.5Z"/>
  <path class="st1" d="M20.15,32.38c-.12.03-.24-.26-.2-.35s.16-.2.29-.24l8.28-2.75c2.1-.7,4.03-1.56,6.03-2.57l.91,1.57-6.79,1.95-8.52,2.4Z"/>
  <path class="st1" d="M34.69,30.78l-14.21,3.41-.17-.75,14.28-3.78c.08.36.1.67.1,1.11Z"/>
  <path class="st1" d="M19.5,37.12c-.23-.14-.47-.31-.68-.26-.2.04-.4.27-.6.51l-.41-3.6c.38-.13.73-.21,1.09-.26l.61,3.61Z"/>
  <path class="st1" d="M14.93,35.5c-.13-.15-.16-.56-.03-.73l1.44-.44.1.77-1.51.4Z"/>
  <path class="st1" d="M14.9,33.92c-.09-.16,0-.45.17-.56l1.09-.28.04.46-1.31.37Z"/>
  <path class="st0" d="M18.29,19.87c-.12.04-.35-.04-.39-.11-.2-.39,1.16-.61.69-1.92l-2.69-7.46-2.31.83c-1.62.58-1.19,1.8-1.69,1.96-.09.03-.28-.13-.31-.24l-.59-1.81c-.04-.11.07-.39.17-.42l10.31-3.75c.13-.05.48-.08.52.04l.87,2.3c-.52.43-1.16-1.01-3.06-.32l-1.89.69,2.58,7.07c.59,1.61,1.9.7,2.03,1.23.03.13-.1.36-.26.42l-3.98,1.5Z"/>
  <path class="st0" d="M24.94,20.87l-7.29,2.71c-.29.11-.6-.01-.76-.22-.13-.17-.21-.65.1-.77l8.33-3.09c.25-.09.48.15.56.29s.13.55,0,.63c-.32.18-.57.3-.93.43Z"/>
  <path class="st0" d="M20.28,24.66c-.3.11-.55.07-.72-.13-.11-.13-.21-.49-.03-.67l5.09-1.93c.29-.11.54.24.56.43.03.29-.11.49-.4.6l-4.49,1.7Z"/>
</svg>